<svg class="closedBackpack" xmlns="http://www.w3.org/2000/svg" xmlns:xlink="http://www.w3.org/1999/xlink" version="1.1" x="0px" y="0px" viewBox="0 0 64 80" style="enable-background:new 0 0 64 64;" xml:space="preserve">
    <g>
        <g>
            <path class="bp" d="M25,45v3h-2v-3h-2v12h22V45H25z M41,55h-6v-2h6V55z"/>
            <path class="bp" d="M32,34c0.552,0,1-0.448,1-1v-2h-2v2C31,33.552,31.448,34,32,34z"/>
            <path class="bp" d="M23,29h18c6.065,0,11-4.935,11-11v-3v-1c0-2.448-1.769-4.491-4.096-4.918l-0.91-8.193C46.938,0.383,46.51,0,46,0h-3v7h-2 
            V0h-3c-0.51,0-0.938,0.383-0.994,0.89L36.105,9h-8.209l-0.901-8.11C26.938,0.383,26.51,0,26,0h-3v7h-2V0h-3    
            c-0.51,0-0.938,0.383-0.994,0.89l-0.91,8.193C13.769,9.509,12,11.552,12,14v1v3C12,24.065,16.935,29,23,29z M25.636,19.293    
            l5.657-5.657c0.391-0.391,1.023-0.391,1.414,0l5.657,5.657c0.391,0.391,0.391,1.023,0,1.414l-5.657,5.657    
            c-0.195,0.195-0.451,0.293-0.707,0.293s-0.512-0.098-0.707-0.293l-5.657-5.657C25.245,20.316,25.245,19.684,25.636,19.293z"/>
            <path class="bp" d="M41,31h-6v2c0,1.654-1.346,3-3,3s-3-1.346-3-3v-2h-6c-4.626,0-8.695-2.429-11-6.079V60c0,2.206,1.794,4,4,4h32    
                c2.206,0,4-1.794,4-4V24.921C49.695,28.571,45.626,31,41,31z M46,44c0,0.553-0.447,1-1,1v12c0,1.103-0.897,2-2,2H21    
                c-1.103,0-2-0.897-2-2V45c-0.553,0-1-0.447-1-1v-4c0-1.103,0.897-2,2-2h24c1.103,0,2,0.897,2,2V44z"/>
            <path class="bp" d="M36.243,20L32,15.757L27.757,20L32,24.243L36.243,20z M31,19h2v2h-2V19z"/>
            <rect class="bp" x="20" y="40" width="24" height="3"/>
        </g>
        <path class="bp" d="M10,38H9c-1.654,0-3,1.346-3,3v17c0,1.654,1.346,3,3,3h1V38z"/>
        <path class="bp" d="M55,38h-1v23h1c1.654,0,3-1.346,3-3V41C58,39.346,56.654,38,55,38z"/>
    </g>
</svg>